<?xml version="1.0" encoding="UTF-8"?>
<svg version="1.1" xmlns="http://www.w3.org/2000/svg" width="512" height="512">
<path d="M0 0 C11.99360234 11.78355676 15.19369245 26.86405847 15.38085938 43.08959961 C15.38135211 44.4347344 15.37935519 45.77987217 15.375 47.125 C15.3737915 47.81353058 15.37258301 48.50206116 15.37133789 49.2114563 C15.30285854 63.57353843 13.39240734 74.65791799 6.84375 87.44140625 C6.4734668 88.17266724 6.10318359 88.90392822 5.72167969 89.65734863 C4.81825144 91.44016228 3.90966247 93.22035922 3 95 C4.33970856 94.98667633 4.33970856 94.98667633 5.70648193 94.9730835 C14.12281743 94.89294066 22.53902481 94.83203718 30.95565414 94.79275131 C35.28277614 94.77187497 39.60958288 94.74355688 43.93652344 94.69824219 C48.11217599 94.65478548 52.2875253 94.63086325 56.46338654 94.62049103 C58.0566307 94.61309928 59.64985824 94.59866479 61.24297333 94.57707977 C63.47452169 94.54804673 65.70481664 94.54404374 67.93652344 94.54589844 C69.20671326 94.53701599 70.47690308 94.52813354 71.7855835 94.51898193 C75 95 75 95 77.40911865 96.36138916 C79.96487028 100.6003187 79.55588446 104.81497463 79.51757812 109.671875 C79.52809204 111.30171326 79.52809204 111.30171326 79.53881836 112.96447754 C79.55643868 116.55991085 79.54476058 120.15455854 79.53125 123.75 C79.53394373 126.24576977 79.53782516 128.74153852 79.54284668 131.23730469 C79.54874721 136.46948275 79.54054146 141.70145608 79.52148438 146.93359375 C79.49971569 152.97997012 79.50676724 159.02580696 79.52879 165.07217026 C79.54913847 170.89212966 79.54697294 176.7118842 79.53526306 182.53186035 C79.53259155 185.00704015 79.53588036 187.48223369 79.54518127 189.95739746 C79.55532109 193.41467959 79.53988019 196.87092057 79.51757812 200.328125 C79.52567505 201.35474243 79.53377197 202.38135986 79.54211426 203.43908691 C79.53083496 204.38119019 79.51955566 205.32329346 79.50793457 206.29394531 C79.50567242 207.51951141 79.50567242 207.51951141 79.50336456 208.76983643 C78.75193494 212.09905566 77.8704333 213.10591409 75 215 C71.56951846 215.48534664 68.20562125 215.37583495 64.75 215.25 C63.81414062 215.23195312 62.87828125 215.21390625 61.9140625 215.1953125 C59.60832985 215.14825673 57.30469055 215.08253713 55 215 C55.00151888 215.55210573 55.00303776 216.10421146 55.00460267 216.67304766 C55.094102 249.39046462 55.16273964 282.10785091 55.20426132 314.82536284 C55.20926418 318.75320434 55.21444147 322.68104559 55.21972656 326.60888672 C55.2207758 327.39085393 55.22182505 328.17282113 55.22290608 328.97848432 C55.2403145 341.6423948 55.27185458 354.3062327 55.30861118 366.97010012 C55.34600849 379.96300714 55.36823328 392.95587614 55.37635398 405.94883478 C55.38184428 413.96714818 55.39918897 421.98525644 55.43166587 430.00350671 C55.45529597 436.15043551 55.4578229 442.2972077 55.45243073 448.44417572 C55.45353304 450.96693308 55.46151431 453.48969805 55.4768219 456.01240921 C55.49667601 459.45254048 55.49195501 462.89178868 55.48101807 466.3319397 C55.49266943 467.3338911 55.5043208 468.33584251 55.51632524 469.36815608 C55.46720899 475.07026246 54.99385751 478.60025701 51 483 C46.41530322 486.63877334 43.41532441 487.50044461 37.59423828 487.50336456 C36.86648886 487.50917833 36.13873943 487.51499209 35.388937 487.52098203 C32.94905796 487.53558615 30.51018429 487.52169555 28.0703125 487.50793457 C26.30399054 487.51254334 24.5376724 487.51889609 22.7713623 487.52684355 C17.91652428 487.54356335 13.0620002 487.53527844 8.20716095 487.52289867 C2.97190712 487.51386137 -2.26329211 487.52781136 -7.49853516 487.53881836 C-17.75481154 487.55662226 -28.01097096 487.55275525 -38.26725197 487.5411678 C-46.60135484 487.53214111 -54.93542489 487.53090616 -63.26953125 487.53526306 C-64.45484058 487.53587599 -65.64014992 487.53648893 -66.86137772 487.53712043 C-69.26917013 487.53839931 -71.67696254 487.53969616 -74.08475494 487.5410108 C-96.67254868 487.55242208 -119.26027752 487.53929428 -141.84806061 487.51780933 C-161.23728124 487.49993787 -180.62640609 487.50304182 -200.015625 487.52148438 C-222.52156146 487.54288139 -245.02744102 487.55132339 -267.53338623 487.53903532 C-269.93241373 487.5377611 -272.33144123 487.53650362 -274.73046875 487.53526306 C-276.50110624 487.53433741 -276.50110624 487.53433741 -278.30751419 487.53339306 C-286.63340875 487.52993665 -294.95926727 487.53577476 -303.28515625 487.54518127 C-313.42906404 487.55638964 -323.57284799 487.55338565 -333.71674156 487.5320583 C-338.89417717 487.52153228 -344.07140616 487.51745253 -349.24884033 487.53065491 C-353.98614249 487.54255242 -358.72304602 487.53605989 -363.46031189 487.5147447 C-365.17624008 487.51026742 -366.89220178 487.51257006 -368.60810852 487.52224785 C-370.93729994 487.53437938 -373.26511893 487.52197117 -375.59423828 487.50336456 C-376.88886993 487.50271515 -378.18350159 487.50206574 -379.5173645 487.50139666 C-384.78497758 486.74301595 -387.82943053 484.28953144 -391.34493637 480.41675377 C-393.65495503 475.64789483 -393.54188188 471.56588286 -393.48101807 466.3319397 C-393.48443577 465.25692243 -393.48785347 464.18190516 -393.49137473 463.07431161 C-393.49796354 459.47195867 -393.4759599 455.87035072 -393.45410156 452.26806641 C-393.45297331 449.68593361 -393.45360651 447.10379953 -393.45587158 444.52166748 C-393.45796711 438.96246249 -393.44543689 433.40344556 -393.42292023 427.84428787 C-393.39038643 419.80675163 -393.37999182 411.76930615 -393.37496826 403.73171119 C-393.36621776 390.69071818 -393.33960886 377.64982535 -393.30175781 364.60888672 C-393.26503137 351.94222514 -393.23672272 339.2755908 -393.21972656 326.60888672 C-393.21867567 325.82787022 -393.21762477 325.04685372 -393.21654204 324.24217005 C-393.21132182 320.32396736 -393.206267 316.40576448 -393.20129442 312.48756146 C-393.15984002 279.99163471 -393.08939829 247.49583077 -393 215 C-393.58491211 215.02094727 -394.16982422 215.04189453 -394.77246094 215.06347656 C-397.43146465 215.14680115 -400.09019355 215.19870897 -402.75 215.25 C-403.67039062 215.28351563 -404.59078125 215.31703125 -405.5390625 215.3515625 C-412.31832175 215.44981263 -412.31832175 215.44981263 -415.60887909 213.27850342 C-417.18561289 210.69598644 -417.50238165 209.30234826 -417.50793457 206.29394531 C-417.51921387 205.35184204 -417.53049316 204.40973877 -417.54211426 203.43908691 C-417.53401733 202.41246948 -417.52592041 201.38585205 -417.51757812 200.328125 C-417.5245874 199.24156616 -417.53159668 198.15500732 -417.53881836 197.03552246 C-417.55643868 193.44008915 -417.54476058 189.84544146 -417.53125 186.25 C-417.53394373 183.75423023 -417.53782516 181.25846148 -417.54284668 178.76269531 C-417.54874721 173.53051725 -417.54054146 168.29854392 -417.52148438 163.06640625 C-417.49971569 157.02002988 -417.50676724 150.97419304 -417.52879 144.92782974 C-417.54913847 139.10787034 -417.54697294 133.2881158 -417.53526306 127.46813965 C-417.53259155 124.99295985 -417.53588036 122.51776631 -417.54518127 120.04260254 C-417.55532109 116.58532041 -417.53988019 113.12907943 -417.51757812 109.671875 C-417.52567505 108.64525757 -417.53377197 107.61864014 -417.54211426 106.56091309 C-417.46074059 99.76417711 -417.46074059 99.76417711 -415.40911865 96.36138916 C-412.1116197 94.49797769 -409.72054667 94.51943674 -405.93652344 94.54589844 C-405.23368225 94.54531433 -404.53084106 94.54473022 -403.80670166 94.54412842 C-401.49041848 94.54690861 -399.17543251 94.57799488 -396.859375 94.609375 C-395.2508413 94.61683768 -393.64229849 94.62253049 -392.03375244 94.62652588 C-387.80520415 94.64178023 -383.57720762 94.68105982 -379.34887695 94.7253418 C-375.03213973 94.7662991 -370.71531313 94.78453784 -366.3984375 94.8046875 C-357.93203879 94.84755472 -349.46608808 94.91580306 -341 95 C-341.82274414 93.39040405 -341.82274414 93.39040405 -342.66210938 91.74829102 C-343.38954648 90.31277603 -344.11674746 88.87714137 -344.84375 87.44140625 C-345.20436523 86.73745728 -345.56498047 86.0335083 -345.93652344 85.30822754 C-352.25066561 72.79887395 -353.36190612 61.20390181 -353.4375 47.3125 C-353.4478125 46.00595459 -353.458125 44.69940918 -353.46875 43.35327148 C-353.33037823 28.14102474 -350.43773102 13.48666478 -339.75 2.0625 C-327.89334877 -8.937284 -314.11924051 -9.64203296 -298.734375 -9.375 C-258.9335217 -7.77840417 -215.03232479 15.34874142 -182.62768555 37.24487305 C-181.13064644 38.23572359 -179.56972971 39.12887456 -178 40 C-177.01 39.67 -176.02 39.34 -175 39 C-173.00179272 38.90564021 -171.00042797 38.87009699 -169 38.875 C-167.948125 38.87242188 -166.89625 38.86984375 -165.8125 38.8671875 C-163 39 -163 39 -160 40 C-158.17828781 39.26622268 -158.17828781 39.26622268 -156.31640625 38 C-155.19431763 37.29883057 -155.19431763 37.29883057 -154.04956055 36.58349609 C-153.22883057 36.06094238 -152.40810059 35.53838867 -151.5625 35 C-119.99160894 15.53084549 -84.19121406 -3.87017737 -47 -9 C-46.08347656 -9.13921875 -45.16695313 -9.2784375 -44.22265625 -9.421875 C-28.84032693 -11.31925483 -12.55483135 -9.7192066 0 0 Z " fill="#BC0403" transform="translate(425,17)"/>
<path d="M0 0 C0.7062854 -0.01664703 1.4125708 -0.03329407 2.14025879 -0.05044556 C4.47312576 -0.09859287 6.80487258 -0.11618459 9.13818359 -0.12939453 C10.76761191 -0.14733932 12.39703696 -0.16558323 14.02645874 -0.18411255 C17.44447823 -0.21708846 20.86210627 -0.23249027 24.28027344 -0.23828125 C28.6392282 -0.24901759 32.99444708 -0.32422388 37.35235023 -0.41576958 C40.72074403 -0.47558626 44.08825578 -0.48973416 47.45713425 -0.49173355 C49.06229037 -0.50009325 50.66745456 -0.52478395 52.27208328 -0.56676865 C64.80325887 -0.86839324 64.80325887 -0.86839324 70.02215576 2.79803467 C72.67871094 5.47558594 72.67871094 5.47558594 74.85873413 8.14108276 C84.87906496 20.20572851 104.21242905 22.9377589 118.93945312 24.39892578 C127.90959868 25.04438722 136.92754894 24.84152963 145.91162109 24.61279297 C140.36613399 32.95197635 140.36613399 32.95197635 137.70849609 36.81591797 C116.12888197 68.93824433 107.11855325 107.61631805 102.91162109 145.61279297 C102.78013672 146.72396484 102.64865234 147.83513672 102.51318359 148.97998047 C101.38676967 160.45722505 101.82410167 172.09389 101.91162109 183.61279297 C102.32299316 183.17112793 102.73436523 182.72946289 103.15820312 182.27441406 C112.55953878 172.19541074 122.09668142 162.28971005 131.91162109 152.61279297 C135.57914114 154.15197307 137.89742682 156.36764749 140.67724609 159.18310547 C141.56669922 160.07900391 142.45615234 160.97490234 143.37255859 161.89794922 C144.75314453 163.30367188 144.75314453 163.30367188 146.16162109 164.73779297 C147.10646966 165.69267933 148.05177743 166.64711155 148.99755859 167.60107422 C151.30680448 169.93388383 153.61125312 172.27123383 155.91162109 174.61279297 C155.90114746 173.91009277 155.89067383 173.20739258 155.87988281 172.48339844 C155.34782682 131.05711494 159.97139305 89.57007195 185.91162109 55.61279297 C186.90162109 54.95279297 187.89162109 54.29279297 188.91162109 53.61279297 C188.91162109 75.72279297 188.91162109 97.83279297 188.91162109 120.61279297 C191.55162109 120.61279297 194.19162109 120.61279297 196.91162109 120.61279297 C196.91162109 210.37279297 196.91162109 300.13279297 196.91162109 392.61279297 C154.03224609 392.73654297 154.03224609 392.73654297 110.28662109 392.86279297 C101.25722168 392.89920898 92.22782227 392.935625 82.92480469 392.97314453 C71.90698242 392.99121094 71.90698242 392.99121094 66.75064087 392.99456787 C63.14580457 392.99829766 59.5412034 393.01329985 55.93643188 393.03509521 C51.33827798 393.06252861 46.74046605 393.07075829 42.1422379 393.06508207 C40.45473227 393.06626902 38.7672147 393.0742031 37.07977939 393.08965349 C34.79904139 393.10956614 32.51962989 393.10474951 30.23886108 393.09381104 C28.96125601 393.09749821 27.68365093 393.10118538 26.36733055 393.10498428 C20.99162738 392.33933126 18.15506313 389.98260283 14.56668472 386.02954674 C12.25666606 381.2606878 12.36973921 377.17867582 12.43060303 371.94473267 C12.42718533 370.8697154 12.42376763 369.79469813 12.42024636 368.68710458 C12.41365755 365.08475163 12.43566119 361.48314369 12.45751953 357.88085938 C12.45864779 355.29872658 12.45801458 352.7165925 12.45574951 350.13446045 C12.45365398 344.57525546 12.46618421 339.01623853 12.48870087 333.45708084 C12.52123466 325.4195446 12.53162928 317.38209911 12.53665283 309.34450416 C12.54540333 296.30351115 12.57201223 283.26261832 12.60986328 270.22167969 C12.64658973 257.55501811 12.67489838 244.88838377 12.69189453 232.22167969 C12.69294543 231.44066319 12.69399632 230.65964669 12.69507906 229.85496302 C12.70029928 225.93676033 12.70535409 222.01855745 12.71032667 218.10035443 C12.75178108 185.60442768 12.8222228 153.10862374 12.91162109 120.61279297 C12.03425293 120.64421387 12.03425293 120.64421387 11.13916016 120.67626953 C8.48015644 120.75959412 5.82142754 120.81150194 3.16162109 120.86279297 C2.24123047 120.89630859 1.32083984 120.92982422 0.37255859 120.96435547 C-6.40670066 121.0626056 -6.40670066 121.0626056 -9.697258 118.89129639 C-11.2739918 116.30877941 -11.59076056 114.91514123 -11.59631348 111.90673828 C-11.60759277 110.96463501 -11.61887207 110.02253174 -11.63049316 109.05187988 C-11.62239624 108.02526245 -11.61429932 106.99864502 -11.60595703 105.94091797 C-11.61296631 104.85435913 -11.61997559 103.76780029 -11.62719727 102.64831543 C-11.64481759 99.05288212 -11.63313948 95.45823443 -11.61962891 91.86279297 C-11.62232264 89.3670232 -11.62620407 86.87125445 -11.63122559 84.37548828 C-11.63712612 79.14331021 -11.62892037 73.91133689 -11.60986328 68.67919922 C-11.58809459 62.63282285 -11.59514615 56.58698601 -11.6171689 50.54062271 C-11.63751737 44.72066331 -11.63535185 38.90090876 -11.62364197 33.08093262 C-11.62097046 30.60575281 -11.62425927 28.13055928 -11.63356018 25.65539551 C-11.64369999 22.19811338 -11.6282591 18.7418724 -11.60595703 15.28466797 C-11.61405396 14.25805054 -11.62215088 13.23143311 -11.63049316 12.17370605 C-11.54909351 5.37480019 -11.54909351 5.37480019 -9.49905396 1.98410034 C-6.21659174 0.11687869 -3.77418647 0.0629632 0 0 Z " fill="#FEBF07" transform="translate(19.08837890625,111.38720703125)"/>
<path d="M0 0 C1.63807595 0.00477516 3.27616301 0.00657816 4.91424561 0.0055542 C8.33416081 0.01178706 11.75238506 0.04473783 15.171875 0.09863281 C19.5525888 0.16681036 23.9314588 0.18188292 28.31264114 0.17885208 C31.68940799 0.17993976 35.06577266 0.20187401 38.4424057 0.23085785 C40.05789909 0.24357021 41.6734379 0.25146613 43.28897858 0.25443268 C45.54402872 0.26311385 47.79712787 0.29812856 50.05175781 0.34082031 C51.33334778 0.3560675 52.61493774 0.3713147 53.93536377 0.38702393 C57.171875 0.921875 57.171875 0.921875 59.58453369 2.29119873 C62.13891625 6.52453756 61.72771404 10.74260874 61.68945312 15.59375 C61.6964624 16.68030884 61.70347168 17.76686768 61.71069336 18.88635254 C61.72831368 22.48178585 61.71663558 26.07643354 61.703125 29.671875 C61.70581873 32.16764477 61.70970016 34.66341352 61.71472168 37.15917969 C61.72062221 42.39135775 61.71241646 47.62333108 61.69335938 52.85546875 C61.67159069 58.90184512 61.67864224 64.94768196 61.700665 70.99404526 C61.72101347 76.81400466 61.71884794 82.6337592 61.70713806 88.45373535 C61.70446655 90.92891515 61.70775536 93.40410869 61.71705627 95.87927246 C61.72719609 99.33655459 61.71175519 102.79279557 61.68945312 106.25 C61.69755005 107.27661743 61.70564697 108.30323486 61.71398926 109.36096191 C61.70270996 110.30306519 61.69143066 111.24516846 61.67980957 112.21582031 C61.67830147 113.03286438 61.67679337 113.84990845 61.67523956 114.69171143 C60.92380994 118.02093066 60.0423083 119.02778909 57.171875 120.921875 C53.74139346 121.40722164 50.37749625 121.29770995 46.921875 121.171875 C45.98601562 121.15382813 45.05015625 121.13578125 44.0859375 121.1171875 C41.78020485 121.07013173 39.47656555 121.00441213 37.171875 120.921875 C37.17415332 121.75003359 37.17415332 121.75003359 37.17647767 122.59492266 C37.265977 155.31233962 37.33461464 188.02972591 37.37613632 220.74723784 C37.38113918 224.67507934 37.38631647 228.60292059 37.39160156 232.53076172 C37.3926508 233.31272893 37.39370005 234.09469613 37.39478108 234.90035932 C37.4121895 247.5642698 37.44372958 260.2281077 37.48048618 272.89197512 C37.51788349 285.88488214 37.54010828 298.87775114 37.54822898 311.87070978 C37.55371928 319.88902318 37.57106397 327.90713144 37.60354087 335.92538171 C37.62717097 342.07231051 37.6296979 348.2190827 37.62430573 354.36605072 C37.62540804 356.88880808 37.63338931 359.41157305 37.6486969 361.93428421 C37.66855101 365.37441548 37.66383001 368.81366368 37.65289307 372.2538147 C37.66454443 373.2557661 37.6761958 374.25771751 37.68820024 375.29003108 C37.63908399 380.99213746 37.16573251 384.52213201 33.171875 388.921875 C28.70396694 392.67430403 25.62328151 393.41957026 19.84463501 393.40289307 C19.13068573 393.40631714 18.41673645 393.40974121 17.68115234 393.41326904 C15.29304441 393.41986418 12.90607092 393.39784146 10.51806641 393.37597656 C8.77519453 393.37475067 7.03232067 393.37528613 5.28944969 393.37743759 C0.6279317 393.37833953 -4.03317442 393.35517999 -8.69459534 393.32699585 C-13.07090534 393.30419244 -17.44711588 393.30314212 -21.82348633 393.30029297 C-34.61675363 393.27931529 -47.40994454 393.22347053 -60.203125 393.171875 C-88.789375 393.089375 -117.375625 393.006875 -146.828125 392.921875 C-146.828125 303.161875 -146.828125 213.401875 -146.828125 120.921875 C-144.188125 120.921875 -141.548125 120.921875 -138.828125 120.921875 C-138.828125 98.811875 -138.828125 76.701875 -138.828125 53.921875 C-116.20273291 76.54726709 -107.13790985 114.50819255 -106.51171875 145.55078125 C-106.49093765 146.42588852 -106.47015656 147.30099579 -106.44874573 148.20262146 C-106.38402724 150.96313602 -106.32473159 153.72373517 -106.265625 156.484375 C-106.22236563 158.37045101 -106.17874915 160.25651886 -106.13476562 162.14257812 C-106.0284271 166.73559322 -105.92694754 171.32869229 -105.828125 175.921875 C-103.57756505 173.69327613 -101.33138832 171.46030811 -99.0859375 169.2265625 C-98.13618042 168.28623169 -98.13618042 168.28623169 -97.16723633 167.3269043 C-93.28180514 163.45666047 -89.61899273 159.52196898 -86.2578125 155.1796875 C-84.828125 153.921875 -84.828125 153.921875 -80.828125 153.921875 C-79.19995117 155.08007812 -79.19995117 155.08007812 -77.62109375 156.703125 C-76.74638428 157.58943604 -76.74638428 157.58943604 -75.85400391 158.49365234 C-75.24733887 159.12996582 -74.64067383 159.7662793 -74.015625 160.421875 C-73.38833496 161.06463379 -72.76104492 161.70739258 -72.11474609 162.36962891 C-68.4252858 166.17429482 -64.85004776 170.05549823 -61.42578125 174.1015625 C-58.40377788 177.54472526 -55.10416829 180.72241454 -51.828125 183.921875 C-50.73059671 132.76486187 -59.79366997 73.255422 -91.83203125 31.6015625 C-93.48179142 29.38681596 -94.64873628 27.3911893 -95.828125 24.921875 C-94.41672241 24.90785645 -94.41672241 24.90785645 -92.97680664 24.89355469 C-56.79842519 24.72182462 -56.79842519 24.72182462 -24.828125 8.921875 C-23.75416911 7.54240255 -22.68162917 6.16182683 -21.61035156 4.78027344 C-15.64382989 -1.22137581 -7.87888789 -0.1517526 0 0 Z " fill="#FEBE07" transform="translate(442.828125,111.078125)"/>
<path d="M0 0 C1.63807595 0.00477516 3.27616301 0.00657816 4.91424561 0.0055542 C8.33416081 0.01178706 11.75238506 0.04473783 15.171875 0.09863281 C19.5525888 0.16681036 23.9314588 0.18188292 28.31264114 0.17885208 C31.68940799 0.17993976 35.06577266 0.20187401 38.4424057 0.23085785 C40.05789909 0.24357021 41.6734379 0.25146613 43.28897858 0.25443268 C45.54402872 0.26311385 47.79712787 0.29812856 50.05175781 0.34082031 C51.33334778 0.3560675 52.61493774 0.3713147 53.93536377 0.38702393 C57.171875 0.921875 57.171875 0.921875 59.58453369 2.29119873 C62.13891625 6.52453756 61.72771404 10.74260874 61.68945312 15.59375 C61.6964624 16.68030884 61.70347168 17.76686768 61.71069336 18.88635254 C61.72831368 22.48178585 61.71663558 26.07643354 61.703125 29.671875 C61.70581873 32.16764477 61.70970016 34.66341352 61.71472168 37.15917969 C61.72062221 42.39135775 61.71241646 47.62333108 61.69335938 52.85546875 C61.67159069 58.90184512 61.67864224 64.94768196 61.700665 70.99404526 C61.72101347 76.81400466 61.71884794 82.6337592 61.70713806 88.45373535 C61.70446655 90.92891515 61.70775536 93.40410869 61.71705627 95.87927246 C61.72719609 99.33655459 61.71175519 102.79279557 61.68945312 106.25 C61.69755005 107.27661743 61.70564697 108.30323486 61.71398926 109.36096191 C61.70270996 110.30306519 61.69143066 111.24516846 61.67980957 112.21582031 C61.67830147 113.03286438 61.67679337 113.84990845 61.67523956 114.69171143 C60.92380994 118.02093066 60.0423083 119.02778909 57.171875 120.921875 C53.74139346 121.40722164 50.37749625 121.29770995 46.921875 121.171875 C45.98601562 121.15382813 45.05015625 121.13578125 44.0859375 121.1171875 C41.78020485 121.07013173 39.47656555 121.00441213 37.171875 120.921875 C37.17415332 121.75003359 37.17415332 121.75003359 37.17647767 122.59492266 C37.265977 155.31233962 37.33461464 188.02972591 37.37613632 220.74723784 C37.38113918 224.67507934 37.38631647 228.60292059 37.39160156 232.53076172 C37.3926508 233.31272893 37.39370005 234.09469613 37.39478108 234.90035932 C37.4121895 247.5642698 37.44372958 260.2281077 37.48048618 272.89197512 C37.51788349 285.88488214 37.54010828 298.87775114 37.54822898 311.87070978 C37.55371928 319.88902318 37.57106397 327.90713144 37.60354087 335.92538171 C37.62717097 342.07231051 37.6296979 348.2190827 37.62430573 354.36605072 C37.62540804 356.88880808 37.63338931 359.41157305 37.6486969 361.93428421 C37.66855101 365.37441548 37.66383001 368.81366368 37.65289307 372.2538147 C37.66454443 373.2557661 37.6761958 374.25771751 37.68820024 375.29003108 C37.63908399 380.99213746 37.16573251 384.52213201 33.171875 388.921875 C28.70396694 392.67430403 25.62328151 393.41957026 19.84463501 393.40289307 C19.12897035 393.40631077 18.41330569 393.40972847 17.67595422 393.41324973 C15.28957775 393.41981284 12.90433838 393.39788013 10.51806641 393.37597656 C8.80291775 393.37484774 7.08776716 393.37548263 5.37261963 393.37774658 C0.72419295 393.37889329 -3.92382008 393.35539091 -8.57215071 393.32745075 C-13.43281419 393.30243 -18.29348737 393.30009456 -23.15420532 393.29534912 C-32.35516517 393.28292134 -41.5559347 393.25010235 -50.75681078 393.20995116 C-61.23314451 393.16522736 -71.70948738 393.14324487 -82.18589282 393.12316942 C-103.73343334 393.08136954 -125.28071299 393.00801959 -146.828125 392.921875 C-146.828125 382.361875 -146.828125 371.801875 -146.828125 360.921875 C-140.56702759 360.90000122 -140.56702759 360.90000122 -134.17944336 360.87768555 C-120.39313951 360.82736376 -106.60695296 360.76092299 -92.82076168 360.68616009 C-84.46165669 360.64122241 -76.10259411 360.60180308 -67.7434082 360.57543945 C-60.45630018 360.55244293 -53.1693266 360.51902645 -45.88232523 360.47317344 C-42.02501952 360.44926345 -38.16784677 360.43052014 -34.31046867 360.42426109 C-30.67671686 360.4182001 -27.04330516 360.39816406 -23.40967941 360.36759949 C-21.44655569 360.3546695 -19.48335244 360.35638642 -17.52018738 360.3585968 C-11.21702398 360.29157623 -6.3366411 360.11794554 -0.828125 356.921875 C4.08992977 351.87439774 4.29502632 347.88189982 4.32577515 341.02978516 C4.3301574 340.33654679 4.33453965 339.64330843 4.3390547 338.92906284 C4.3524078 336.60635158 4.35861378 334.28367824 4.36474609 331.9609375 C4.37265004 330.29510834 4.38091917 328.62928088 4.38952637 326.9634552 C4.41572042 321.49127837 4.43105493 316.01909401 4.4453125 310.546875 C4.45067392 308.660085 4.45605144 306.77329504 4.46144485 304.88650513 C4.48307288 297.03374392 4.50180672 289.18098474 4.51306725 281.32820129 C4.52928711 270.09227092 4.56241806 258.8566874 4.61946809 247.62088776 C4.65825102 239.71155552 4.67771001 231.80231572 4.68298781 223.89289093 C4.68663084 219.17406191 4.69853949 214.45560307 4.73109055 209.73687744 C4.76131723 205.29129504 4.76743141 200.84630393 4.75570679 196.40064049 C4.75548724 194.7769722 4.76369262 193.15327531 4.78136063 191.52970314 C4.91656277 178.38006054 2.53445127 166.79352752 -6.828125 156.921875 C-16.05646662 148.35127695 -26.6112817 146.25974257 -38.828125 144.921875 C-38.69680176 145.51323242 -38.56547852 146.10458984 -38.43017578 146.71386719 C-37.05669604 153.18397836 -36.24205603 159.58327681 -35.703125 166.171875 C-35.6196582 167.1724292 -35.53619141 168.1729834 -35.45019531 169.20385742 C-34.1491845 185.66164421 -34.1491845 185.66164421 -34.828125 191.921875 C-36.828125 193.921875 -36.828125 193.921875 -39.1574707 194.26269531 C-43.67447709 193.68624948 -45.87779555 191.19256529 -48.91552734 187.96289062 C-52.32560182 182.54089833 -52.11589348 176.73415315 -52.13223267 170.51522827 C-52.14663678 166.4932328 -52.31110746 162.47618521 -52.453125 158.45703125 C-52.47792435 157.64800858 -52.50272369 156.8389859 -52.52827454 156.00544739 C-53.92403393 114.30624914 -65.48235071 66.69672896 -90.828125 32.921875 C-95.828125 25.96588478 -95.828125 25.96588478 -95.828125 24.921875 C-94.41672241 24.90785645 -94.41672241 24.90785645 -92.97680664 24.89355469 C-56.79842519 24.72182462 -56.79842519 24.72182462 -24.828125 8.921875 C-23.75416911 7.54240255 -22.68162917 6.16182683 -21.61035156 4.78027344 C-15.64382989 -1.22137581 -7.87888789 -0.1517526 0 0 Z " fill="#FE9700" transform="translate(442.828125,111.078125)"/>
<path d="M0 0 C11.99360234 11.78355676 15.19369245 26.86405847 15.38085938 43.08959961 C15.38135211 44.4347344 15.37935519 45.77987217 15.375 47.125 C15.3737915 47.81353058 15.37258301 48.50206116 15.37133789 49.2114563 C15.29047397 66.17093712 12.55764276 84.05877466 0.94921875 97.34765625 C-0.9619685 99.03618091 -2.92693978 100.51803638 -5 102 C-6.08828167 103.0155564 -7.17166679 104.03638632 -8.25 105.0625 C-17.09008751 112.52879013 -27.96144694 115.48831056 -39 118 C-39.73331543 118.17273438 -40.46663086 118.34546875 -41.22216797 118.5234375 C-44.74019379 119.12698702 -48.23308684 119.27120636 -51.79296875 119.38671875 C-52.9120739 119.42500542 -52.9120739 119.42500542 -54.05378723 119.46406555 C-55.62961388 119.51591284 -57.20552117 119.56535822 -58.78149414 119.61254883 C-61.1628136 119.68673098 -63.54311908 119.77766025 -65.92382812 119.86914062 C-73.89797964 120.13711077 -81.21937121 119.93455996 -89 118 C-90.35637461 117.7895531 -91.71600764 117.59902827 -93.078125 117.4296875 C-103.47447766 116.07179654 -113.51391293 113.72093503 -123.625 111 C-124.27134399 110.82660095 -124.91768799 110.6532019 -125.58361816 110.47454834 C-131.51037074 108.87659583 -137.40500003 107.24703622 -143.2109375 105.25 C-146.80984153 103.84335542 -146.80984153 103.84335542 -150 104 C-151.52104355 105.86625118 -151.52104355 105.86625118 -152.875 108.25 C-155.21255016 111.93569171 -157.30247117 114.56741524 -161 117 C-161.598125 117.4125 -162.19625 117.825 -162.8125 118.25 C-167.06298475 119.70730906 -170.94173088 119.82870386 -175.0859375 118.16015625 C-182.86202944 113.73582808 -187.74376407 106.18133806 -191 98 C-191.40532511 96.42407905 -191.77533399 94.83864889 -192.109375 93.24609375 C-192.27920898 92.44743896 -192.44904297 91.64878418 -192.62402344 90.82592773 C-192.7480957 90.22337158 -192.87216797 89.62081543 -193 89 C-193.71728271 88.93530518 -194.43456543 88.87061035 -195.17358398 88.80395508 C-237.95218096 84.84391809 -281.04566951 75.45071137 -314 46 C-314.99128906 45.12859375 -315.98257813 44.2571875 -317.00390625 43.359375 C-324.48084253 36.71227401 -324.48084253 36.71227401 -326.6171875 33.78125 C-328.6129299 31.21046318 -330.93974453 30.86485481 -334 30 C-335 29 -335 29 -335.125 26.0625 C-335.69470282 21.29860571 -338.52796131 18.12191848 -341.40625 14.4296875 C-343.14824221 11.7740033 -343.94479946 10.18155821 -344 7 C-338.35518544 -1.47447738 -329.0026992 -6.30562945 -319.32299805 -8.59643555 C-273.68944829 -16.52415575 -219.24718737 12.50071755 -182.62768555 37.24487305 C-181.13064644 38.23572359 -179.56972971 39.12887456 -178 40 C-177.01 39.67 -176.02 39.34 -175 39 C-173.00179272 38.90564021 -171.00042797 38.87009699 -169 38.875 C-167.948125 38.87242188 -166.89625 38.86984375 -165.8125 38.8671875 C-163 39 -163 39 -160 40 C-158.17828781 39.26622268 -158.17828781 39.26622268 -156.31640625 38 C-155.56834717 37.53255371 -154.82028809 37.06510742 -154.04956055 36.58349609 C-153.22883057 36.06094238 -152.40810059 35.53838867 -151.5625 35 C-119.99160894 15.53084549 -84.19121406 -3.87017737 -47 -9 C-46.08347656 -9.13921875 -45.16695313 -9.2784375 -44.22265625 -9.421875 C-28.84032693 -11.31925483 -12.55483135 -9.7192066 0 0 Z " fill="#D00000" transform="translate(425,17)"/>
<path d="M0 0 C26.4 0 52.8 0 80 0 C80 81.84 80 163.68 80 248 C53.6 248 27.2 248 0 248 C0 166.16 0 84.32 0 0 Z " fill="#D00000" transform="translate(216,256)"/>
<path d="M0 0 C0.7062854 -0.01664703 1.4125708 -0.03329407 2.14025879 -0.05044556 C4.47312576 -0.09859287 6.80487258 -0.11618459 9.13818359 -0.12939453 C10.76761191 -0.14733932 12.39703696 -0.16558323 14.02645874 -0.18411255 C17.44447823 -0.21708846 20.86210627 -0.23249027 24.28027344 -0.23828125 C28.6392282 -0.24901759 32.99444708 -0.32422388 37.35235023 -0.41576958 C40.72074403 -0.47558626 44.08825578 -0.48973416 47.45713425 -0.49173355 C49.06229037 -0.50009325 50.66745456 -0.52478395 52.27208328 -0.56676865 C64.80325887 -0.86839324 64.80325887 -0.86839324 70.02215576 2.79803467 C72.67871094 5.47558594 72.67871094 5.47558594 74.85873413 8.14108276 C84.87906496 20.20572851 104.21242905 22.9377589 118.93945312 24.39892578 C127.90959868 25.04438722 136.92754894 24.84152963 145.91162109 24.61279297 C140.36613399 32.95197635 140.36613399 32.95197635 137.70849609 36.81591797 C126.14456029 54.02941019 119.09233317 72.7400786 112.91967773 92.44580078 C111.62454169 96.51470482 110.26193059 100.56186447 108.91162109 104.61279297 C69.31162109 104.61279297 29.71162109 104.61279297 -11.08837891 104.61279297 C-11.17087891 88.19529297 -11.25337891 71.77779297 -11.33837891 54.86279297 C-11.37479492 49.67850586 -11.41121094 44.49421875 -11.44873047 39.15283203 C-11.46679688 32.82324219 -11.46679688 32.82324219 -11.47015381 29.86029053 C-11.47629708 27.79043134 -11.49036743 25.72058649 -11.51068115 23.65081787 C-11.53991204 20.51581952 -11.54400468 17.381696 -11.54248047 14.24658203 C-11.5568729 13.32413822 -11.57126534 12.40169441 -11.5860939 11.45129776 C-11.56136319 7.65791676 -11.52476697 5.31851199 -9.50302124 2.04898071 C-6.21968296 0.09610755 -3.81604448 0.0636615 0 0 Z " fill="#FADD08" transform="translate(19.08837890625,111.38720703125)"/>
<path d="M0 0 C1.86159004 0.00033989 1.86159004 0.00033989 3.76078796 0.00068665 C5.11502441 0.01600649 6.46925719 0.03165448 7.82348633 0.04760742 C9.20924928 0.05320366 10.59501817 0.05747363 11.98078918 0.06047058 C15.62564521 0.07191734 19.27014181 0.10138259 22.91485596 0.13458252 C26.63500099 0.16528732 30.35520419 0.17897676 34.07543945 0.1940918 C41.37312924 0.22625286 48.67052302 0.27744666 55.96801758 0.34057617 C56.08419139 11.25037761 56.17287463 22.16003035 56.22707844 33.07032585 C56.253102 38.13719506 56.28836704 43.2036391 56.34521484 48.27026367 C56.3997938 53.1656623 56.42949251 58.0606536 56.44240379 62.95633316 C56.4515974 64.81816133 56.46955006 66.67996879 56.49666786 68.54162216 C56.78394228 89.09227923 56.78394228 89.09227923 49.21211243 97.22702026 C43.42585163 102.77012603 37.28809065 104.72170475 29.38037109 104.68115234 C28.65758469 104.68159042 27.93479828 104.6820285 27.19010925 104.68247986 C24.82542938 104.68040693 22.46147825 104.65714814 20.09692383 104.63354492 C18.44783414 104.62794361 16.79873943 104.62367604 15.14964294 104.62068176 C10.82754524 104.60927503 6.50575415 104.57984424 2.18377686 104.54656982 C-2.23380385 104.51577856 -6.65143451 104.50215714 -11.0690918 104.48706055 C-19.72352874 104.45497012 -28.37771735 104.40382485 -37.03198242 104.34057617 C-37.36538635 103.3546196 -37.69879028 102.36866302 -38.04229736 101.35282898 C-39.30497188 97.62253655 -40.57326131 93.89417192 -41.84307861 90.16630554 C-42.38728737 88.56620326 -42.93006131 86.96561212 -43.47125244 85.36448669 C-49.67523992 67.01683742 -56.74205609 49.05867222 -65.74780273 31.87890625 C-68.03198242 27.52067687 -68.03198242 27.52067687 -68.03198242 25.34057617 C-67.44408936 25.27064453 -66.85619629 25.20071289 -66.25048828 25.12866211 C-44.44928685 22.48403075 -25.20486753 19.45208411 -9.03198242 3.34057617 C-8.61893356 2.81030319 -8.2058847 2.28003021 -7.78031921 1.73368835 C-5.21468135 -0.31066682 -3.24857461 -0.0197682 0 0 Z " fill="#FADD08" transform="translate(432.031982421875,111.659423828125)"/>
<path d="M0 0 C1.94584775 0.38916955 3.89167174 0.77845809 5.83740234 1.16821289 C7.60949127 1.5221315 9.38196995 1.87410282 11.15478516 2.22436523 C16.0603668 3.19665404 20.95511439 4.20100068 25.83984375 5.2734375 C27.85121217 5.70476191 29.86293878 6.13441902 31.875 6.5625 C32.89907959 6.78607178 33.92315918 7.00964355 34.97827148 7.23999023 C40.98285576 8.46764908 46.82265855 9.18047647 52.9453125 9.38671875 C72.21424904 10.11628277 72.21424904 10.11628277 77.04931641 13.38574219 C80.42202067 17.12698343 81.84308533 21.52739154 83.20019531 26.30566406 C84.06514748 29.21946507 85.13850788 31.98548886 86.2734375 34.8046875 C100.54954698 70.89280108 105.77711448 110.36014094 105 149 C97.32436795 142.52266186 90.31267613 135.62520548 83.7734375 127.99609375 C80.67471211 124.50832134 77.33655363 121.25855627 74 118 C70.95656051 119.34603347 69.01196219 120.79649297 66.79296875 123.265625 C65.9122168 124.23048828 65.9122168 124.23048828 65.01367188 125.21484375 C64.41103516 125.88644531 63.80839844 126.55804688 63.1875 127.25 C61.99736946 128.57121362 60.80337396 129.88895636 59.60546875 131.203125 C59.08106201 131.78739258 58.55665527 132.37166016 58.01635742 132.97363281 C55.16893883 135.83518679 52.09029429 138.40582477 49 141 C48.98541748 139.86272461 48.97083496 138.72544922 48.95581055 137.55371094 C48.89670204 133.2293751 48.81950718 128.90550092 48.73754883 124.58154297 C48.70481723 122.72973261 48.67663506 120.87783482 48.65356445 119.02587891 C48.13096751 78.12988847 37.2902321 37.89938771 8 8 C5.85100461 6.03694099 3.67476297 4.13406289 1.43359375 2.27734375 C0.96050781 1.85582031 0.48742187 1.43429688 0 1 C0 0.67 0 0.34 0 0 Z " fill="#D00100" transform="translate(287,147)"/>
<path d="M0 0 C-0.75023437 0.65484375 -1.50046875 1.3096875 -2.2734375 1.984375 C-31.87714741 28.2057771 -45.50846721 64.3341278 -48.75 103.1875 C-49.33493401 115.10383013 -49.0811497 127.07349162 -49 139 C-54.43733055 134.47008204 -59.46458931 129.65705784 -64.4375 124.625 C-65.53481445 123.52091797 -65.53481445 123.52091797 -66.65429688 122.39453125 C-68.43852723 120.59863926 -70.22036124 118.80044015 -72 117 C-75.54120058 118.50910012 -77.81604365 120.57119314 -80.51953125 123.2890625 C-81.37740234 124.14886719 -82.23527344 125.00867188 -83.11914062 125.89453125 C-84.45235352 127.24611328 -84.45235352 127.24611328 -85.8125 128.625 C-86.68970703 129.50285156 -87.56691406 130.38070312 -88.47070312 131.28515625 C-93.04181238 135.88703587 -97.46228567 140.54659828 -101.6315918 145.51708984 C-103 147 -103 147 -105 148 C-105.32730889 126.82311471 -104.38054007 106.27943511 -100.45947266 85.44628906 C-100.13875853 83.73876751 -99.82660522 82.02962552 -99.52099609 80.31933594 C-94.97042197 55.05775954 -86.74646951 31.80158106 -75 9 C-74.67 9.66 -74.34 10.32 -74 11 C-51.95654386 8.9767898 -51.95654386 8.9767898 -30.12207031 5.42675781 C-27.66504968 4.93264 -25.2038623 4.46255429 -22.7421875 3.9921875 C-20.93209996 3.64161335 -19.12220088 3.29006468 -17.3125 2.9375 C-16.47388428 2.77515869 -15.63526855 2.61281738 -14.77124023 2.44555664 C-11.24916609 1.74242737 -7.94915068 0.98259057 -4.54296875 -0.18359375 C-2 -1 -2 -1 0 0 Z " fill="#D00000" transform="translate(225,148)"/>
<path d="M0 0 C1.421875 1.890625 1.421875 1.890625 2.75 4.25 C6.10121769 9.52943088 9.79829074 13.01088167 16.0078125 14.47265625 C20.70409375 14.83178364 24.1923603 13.40262019 28.03515625 10.77734375 C31.75386387 7.41350286 34.36837271 3.23527517 37 -1 C42.97151154 0.25259121 48.80553001 1.76223698 54.66455078 3.4621582 C70.61346085 8.08702052 86.51277353 11.71709271 103.03125 13.5078125 C106.68408864 14.1134147 109.02775727 14.91015983 111.52392578 17.70825195 C111.9929834 18.37816162 112.46204102 19.04807129 112.9453125 19.73828125 C113.46480469 20.47626953 113.98429688 21.21425781 114.51953125 21.97460938 C115.04933594 22.74611328 115.57914063 23.51761719 116.125 24.3125 C116.66253906 25.07240234 117.20007813 25.83230469 117.75390625 26.61523438 C120.34429743 30.33286561 122.41445374 33.73111432 124 38 C116.38229675 38.15903153 108.99636528 37.74920166 101.4375 36.8125 C100.37120361 36.68230469 99.30490723 36.55210937 98.20629883 36.41796875 C81.94050299 34.3297201 65.87168325 31.10684435 50 27 C51.06420166 27.93477173 51.06420166 27.93477173 52.14990234 28.88842773 C54.80927282 31.22436126 57.44131639 33.55303356 60 36 C60.82250244 36.70950806 60.82250244 36.70950806 61.66162109 37.43334961 C65.39591977 41.04781054 66.39953313 43.72363221 66.5859375 48.93359375 C66.54638586 51.10234178 66.47530237 53.27071164 66.375 55.4375 C66.33439453 57.1071582 66.33439453 57.1071582 66.29296875 58.81054688 C66.22262083 61.5423912 66.12424271 64.27016464 66 67 C63.64447834 64.66080778 61.30024642 62.32173523 59.03515625 59.89453125 C50.77804426 51.17959919 39.57151277 41.82849307 28 38 C24.88006394 38.07542341 24.88006394 38.07542341 22 39 C20.66863463 39.08354722 19.33398184 39.12248305 18 39.125 C17.38125 39.12757813 16.7625 39.13015625 16.125 39.1328125 C14 39 14 39 11.12890625 38.31640625 C2.24124294 37.41765378 -8.0889079 46.85907946 -14.8359375 52.2890625 C-19.15280276 55.89667133 -23.06361009 59.887177 -26.953125 63.9453125 C-27.62859375 64.62335938 -28.3040625 65.30140625 -29 66 C-29.33 66 -29.66 66 -30 66 C-31.46614944 45.95510564 -31.46614944 45.95510564 -28.2421875 39.45703125 C-25.95956024 36.96161671 -23.71525429 35.01144758 -21 33 C-19.72355493 31.92613353 -18.45428624 30.84369309 -17.19140625 29.75390625 C-16.58627197 29.23256104 -15.9811377 28.71121582 -15.35766602 28.17407227 C-14.68562134 27.59290649 -14.68562134 27.59290649 -14 27 C-14.5669458 27.13575439 -15.1338916 27.27150879 -15.71801758 27.41137695 C-28.05670967 30.34490441 -40.34703594 32.88532807 -52.90039062 34.69580078 C-56.04106461 35.15083331 -59.17649282 35.63898984 -62.3125 36.125 C-63.27800781 36.27195313 -64.24351562 36.41890625 -65.23828125 36.5703125 C-67.13920828 36.86607201 -69.03519176 37.19487589 -70.92578125 37.55078125 C-74.28582135 38.04176551 -77.48105411 38.0971321 -80.875 38.0625 C-82.02742187 38.05347656 -83.17984375 38.04445312 -84.3671875 38.03515625 C-85.23601562 38.02355469 -86.10484375 38.01195312 -87 38 C-86.48088587 33.36258043 -84.40586256 30.20445554 -81.75 26.5 C-81.36714844 25.94441406 -80.98429688 25.38882813 -80.58984375 24.81640625 C-74.18433899 15.71159179 -74.18433899 15.71159179 -69.58984375 14.21484375 C-68.71457031 14.12332031 -67.83929688 14.03179687 -66.9375 13.9375 C-52.41062027 11.98770115 -38.27144404 8.66330316 -24.125 4.875 C-23.46743713 4.69910339 -22.80987427 4.52320679 -22.13238525 4.34197998 C-14.38123609 2.285528 -14.38123609 2.285528 -6.73486328 -0.11962891 C-3.85174595 -1.04772399 -2.69872415 -1.33762849 0 0 Z " fill="#890610" transform="translate(238,121)"/>
<path d="M0 0 C60.72 0 121.44 0 184 0 C184 10.56 184 21.12 184 32 C161.41683769 32.09028542 138.83382145 32.16397337 116.25052452 32.20724869 C105.76476964 32.22787601 95.27913484 32.25599995 84.79345703 32.30175781 C75.65439226 32.34162027 66.51541446 32.36743157 57.37626517 32.37635398 C52.53689092 32.38156971 47.69776545 32.39383223 42.85847092 32.42292023 C38.30305374 32.45007993 33.74798771 32.45844386 29.19249725 32.45243073 C27.5211636 32.45353071 25.84981815 32.46148138 24.17855453 32.4768219 C21.89435304 32.49675925 19.61147282 32.49192656 17.32723999 32.48101807 C16.04963491 32.48470524 14.77202984 32.48839241 13.45570946 32.49219131 C9.2601206 31.89462013 7.23530201 30.71720927 4 28 C0 22 0 22 0 0 Z " fill="#FF9700" transform="translate(32,472)"/>
<path d="M0 0 C3.43177263 5.56272372 2.39470336 12.4324277 2.375 18.75 C2.3737915 19.45351593 2.37258301 20.15703186 2.37133789 20.88186646 C2.29148215 37.92205851 -0.3915491 56.00061145 -12.05078125 69.34765625 C-13.9619685 71.03618091 -15.92693978 72.51803638 -18 74 C-19.08828167 75.0155564 -20.17166679 76.03638632 -21.25 77.0625 C-30.09008751 84.52879013 -40.96144694 87.48831056 -52 90 C-52.73331543 90.17273438 -53.46663086 90.34546875 -54.22216797 90.5234375 C-57.74019379 91.12698702 -61.23308684 91.27120636 -64.79296875 91.38671875 C-65.53903885 91.41224319 -66.28510895 91.43776764 -67.05378723 91.46406555 C-68.62961388 91.51591284 -70.20552117 91.56535822 -71.78149414 91.61254883 C-74.1628136 91.68673098 -76.54311908 91.77766025 -78.92382812 91.86914062 C-86.89797964 92.13711077 -94.21937121 91.93455996 -102 90 C-103.35637461 89.7895531 -104.71600764 89.59902827 -106.078125 89.4296875 C-116.40422528 88.08172653 -126.38823613 85.75939239 -136.4375 83.0625 C-137.69272461 82.72653809 -138.94794922 82.39057617 -140.24121094 82.04443359 C-147.91880174 79.94583796 -155.47957667 77.60586361 -163 75 C-162.25130208 72.81901042 -161.50260417 70.63802083 -160.75390625 68.45703125 C-159.99573147 65.98608857 -159.48944856 63.53589764 -159 61 C-157.82308594 60.98541748 -156.64617187 60.97083496 -155.43359375 60.95581055 C-106.4049014 60.30075158 -51.16802187 58.04084667 -14.44482422 20.59179688 C-8.82199598 14.39699456 -4.21774682 7.19577252 0 0 Z " fill="#BC0403" transform="translate(438,45)"/>
<path d="M0 0 C1.91541138 -0.10841951 3.83259773 -0.18578079 5.75 -0.25 C6.81734375 -0.29640625 7.8846875 -0.3428125 8.984375 -0.390625 C12 0 12 0 14.35827637 1.34863281 C16.98147449 5.58507145 16.55611375 9.78590283 16.51757812 14.671875 C16.5245874 15.75843384 16.53159668 16.84499268 16.53881836 17.96447754 C16.55643868 21.55991085 16.54476058 25.15455854 16.53125 28.75 C16.53394373 31.24576977 16.53782516 33.74153852 16.54284668 36.23730469 C16.54874721 41.46948275 16.54054146 46.70145608 16.52148438 51.93359375 C16.49971569 57.97997012 16.50676724 64.02580696 16.52879 70.07217026 C16.54913847 75.89212966 16.54697294 81.7118842 16.53526306 87.53186035 C16.53259155 90.00704015 16.53588036 92.48223369 16.54518127 94.95739746 C16.55532109 98.41467959 16.53988019 101.87092057 16.51757812 105.328125 C16.52567505 106.35474243 16.53377197 107.38135986 16.54211426 108.43908691 C16.49572018 112.31415262 16.42890467 115.16518942 14.64434814 118.63861084 C10.30029527 120.8750586 5.98396386 120.52048578 1.17285156 120.45410156 C-0.48125481 120.45497772 -0.48125481 120.45497772 -2.16877747 120.45587158 C-5.81596282 120.45308349 -9.4623323 120.42195572 -13.109375 120.390625 C-15.63714145 120.38316523 -18.16491369 120.37747105 -20.69268799 120.37347412 C-26.66739213 120.35975884 -32.64174573 120.32822951 -38.6163094 120.28807616 C-45.41913332 120.24334983 -52.22197131 120.22136931 -59.02490568 120.20129442 C-73.01676603 120.15949627 -87.00836697 120.0891497 -101 120 C-102.27419569 116.23213001 -103.40350185 112.53277578 -104.26171875 108.6484375 C-110.37328756 81.65891918 -119.18197699 54.41108379 -136 32 C-141 25.04400978 -141 25.04400978 -141 24 C-132.09 24 -123.18 24 -114 24 C-114 24.33 -114 24.66 -114 25 C-117.3 25 -120.6 25 -124 25 C-123.6282666 25.74233887 -123.2565332 26.48467773 -122.87353516 27.24951172 C-111.57238932 49.93190397 -102.09322811 72.92646604 -94.1796875 97.02734375 C-93.95007324 97.72593506 -93.72045898 98.42452637 -93.48388672 99.14428711 C-93 101 -93 101 -93 104 C-83.5240102 103.98507693 -74.04861914 103.9432687 -64.57291603 103.86790943 C-60.17207764 103.83373827 -55.77158276 103.80854492 -51.37060547 103.80444336 C-47.11681208 103.80013906 -42.86379226 103.77150173 -38.61024094 103.72656822 C-36.99413956 103.71366085 -35.37794528 103.70926138 -33.76179886 103.71384621 C-23.9377137 103.73520864 -15.16340553 103.43054183 -7.40322876 96.59309387 C-1.89007725 90.55620991 -0.55303326 84.22926399 -0.56762695 76.40258789 C-0.5574353 75.57251221 -0.54724365 74.74243652 -0.53674316 73.88720703 C-0.506744 71.16562028 -0.49736737 68.44438625 -0.48828125 65.72265625 C-0.47142485 63.82692812 -0.45327332 61.93121111 -0.43388367 60.0355072 C-0.38648194 55.06256584 -0.35660905 50.08966955 -0.33044434 45.11657715 C-0.30058917 40.03530989 -0.25407588 34.95419773 -0.20898438 29.87304688 C-0.12306308 19.91544588 -0.05566815 9.95781288 0 0 Z " fill="#F8AE0A" transform="translate(488,112)"/>
<path d="M0 0 C39.6 0 79.2 0 120 0 C119.37917915 6.20820846 118.71570691 12.15870194 117.5625 18.25 C116.14173467 25.81238052 115.09066649 33.36533457 114 41 C84.3 40.67 54.6 40.34 24 40 C24 32.08 24 24.16 24 16 C17.59745344 16.15780162 17.59745344 16.15780162 11.19628906 16.36035156 C10.39416992 16.3703418 9.59205078 16.38033203 8.765625 16.390625 C7.94868164 16.41157227 7.13173828 16.43251953 6.29003906 16.45410156 C4 16 4 16 0 12 C0 8.04 0 4.08 0 0 Z " fill="#FE9600" transform="translate(8,216)"/>
<path d="M0 0 C31.68 0 63.36 0 96 0 C96 5.28 96 10.56 96 16 C93.36 16 90.72 16 88 16 C88 23.92 88 31.84 88 40 C61.6 40 35.2 40 8 40 C8 32.08 8 24.16 8 16 C5.36 16 2.72 16 0 16 C0 10.72 0 5.44 0 0 Z " fill="#890711" transform="translate(208,216)"/>
<path d="M0 0 C0.33 0 0.66 0 1 0 C1 22.11 1 44.22 1 67 C3.64 67 6.28 67 9 67 C9 74.92 9 82.84 9 91 C-1.23 91 -11.46 91 -22 91 C-22.66 104.86 -23.32 118.72 -24 133 C-25.32 133.33 -26.64 133.66 -28 134 C-30.10644531 132.46118164 -30.10644531 132.46118164 -32.328125 130.16015625 C-33.12734375 129.34482422 -33.9265625 128.52949219 -34.75 127.68945312 C-35.575 126.82255859 -36.4 125.95566406 -37.25 125.0625 C-38.09046875 124.19947266 -38.9309375 123.33644531 -39.796875 122.44726562 C-41.87617282 120.30889685 -43.94296615 118.15975911 -46 116 C-50.00519733 117.58781045 -52.5691058 120.41201482 -55.46484375 123.48046875 C-56.52219761 124.5728359 -57.58015879 125.66461548 -58.63867188 126.75585938 C-60.2954983 128.47475214 -61.94721793 130.19776396 -63.58862305 131.93139648 C-65.17980193 133.60710898 -66.78918103 135.26344732 -68.40234375 136.91796875 C-68.88895981 137.44182663 -69.37557587 137.96568451 -69.87693787 138.50541687 C-71.29272461 139.94213867 -71.29272461 139.94213867 -74 142 C-76.84985352 141.81762695 -76.84985352 141.81762695 -79 141 C-80.57011716 134.49956326 -81.35875159 128.39643529 -79 122 C-72.70098386 113.18982514 -64.18359584 106.01491628 -56 99 C-52.33247995 100.5391801 -50.01419427 102.75485452 -47.234375 105.5703125 C-46.34492188 106.46621094 -45.45546875 107.36210937 -44.5390625 108.28515625 C-43.61867187 109.22230469 -42.69828125 110.15945313 -41.75 111.125 C-40.80515144 112.07988637 -39.85984367 113.03431859 -38.9140625 113.98828125 C-36.60481662 116.32109087 -34.30036797 118.65844086 -32 121 C-32.01571045 119.94594971 -32.01571045 119.94594971 -32.03173828 118.87060547 C-32.57277094 76.74539164 -27.42236498 36.82580481 -2 2 C-1.34 1.34 -0.68 0.68 0 0 Z " fill="#FE7D00" transform="translate(207,165)"/>
<path d="M0 0 C26.4 0 52.8 0 80 0 C80 10.56 80 21.12 80 32 C53.6 32 27.2 32 0 32 C0 21.44 0 10.88 0 0 Z " fill="#9D0208" transform="translate(216,472)"/>
<path d="M0 0 C1.5625 1.92578125 1.5625 1.92578125 3 4.3125 C5.03606014 7.65982712 7.14292554 10.30917771 10 13 C8.90300781 13.60328125 7.80601562 14.2065625 6.67578125 14.828125 C5.22121872 15.6351726 3.76679917 16.44247792 2.3125 17.25 C1.59126953 17.64574219 0.87003906 18.04148438 0.12695312 18.44921875 C-3.01569014 20.199915 -5.84187004 21.8689713 -8.62109375 24.171875 C-17.36957796 30.89484809 -33.04175706 31.33118488 -43.6171875 33.0703125 C-47.00967165 33.63472473 -50.35908186 34.27760839 -53.7109375 35.046875 C-64.7009379 37.56383703 -75.75319091 38.34664823 -87 38 C-86.48088587 33.36258043 -84.40586256 30.20445554 -81.75 26.5 C-81.36714844 25.94441406 -80.98429688 25.38882813 -80.58984375 24.81640625 C-74.18433899 15.71159179 -74.18433899 15.71159179 -69.58984375 14.21484375 C-68.71457031 14.12332031 -67.83929688 14.03179687 -66.9375 13.9375 C-52.41062027 11.98770115 -38.27144404 8.66330316 -24.125 4.875 C-23.46743713 4.69910339 -22.80987427 4.52320679 -22.13238525 4.34197998 C-14.38087922 2.28525622 -14.38087922 2.28525622 -6.73388672 -0.11938477 C-3.84276649 -1.05064666 -2.70668719 -1.33584346 0 0 Z " fill="#9D0207" transform="translate(238,121)"/>
<path d="M0 0 C7.63839422 4.05354254 12.92392473 12.67562057 15.9375 20.5625 C18.29492652 28.67316982 15.46788326 35.65697317 12 43 C8.87449426 48.52172681 4.24516709 53.97950476 -2 56 C-7.93319006 56.69220551 -11.28656345 55.9016817 -16.18359375 52.48046875 C-23.51200724 46.50741776 -27.4032175 38.14520885 -29 29 C-28.5820854 17.71630585 -22.92903774 9.59318531 -15 2 C-10.27600917 -1.14932722 -5.51344957 -0.89672369 0 0 Z " fill="#DB2E02" transform="translate(262,56)"/>
<path d="M0 0 C39.6 0 79.2 0 120 0 C118.875 11.25 118.875 11.25 117 16 C102.33577836 16.0934352 87.67159611 16.1639751 73.0071373 16.20724869 C66.19817912 16.22787534 59.38940588 16.25599754 52.58056641 16.30175781 C46.01240702 16.34587951 39.44438957 16.36912311 32.87607574 16.37950897 C30.36737286 16.38691248 27.85868075 16.40136936 25.35005951 16.42292023 C21.84218922 16.45186289 18.33511848 16.45595969 14.82714844 16.45410156 C13.78489609 16.46848267 12.74264374 16.48286377 11.66880798 16.49768066 C10.23436089 16.48943268 10.23436089 16.48943268 8.77093506 16.48101807 C7.94132137 16.48470524 7.11170769 16.48839241 6.25695419 16.49219131 C4 16 4 16 0 12 C0 8.04 0 4.08 0 0 Z " fill="#F8AE0A" transform="translate(8,216)"/>
<path d="M0 0 C5.97151154 1.25259121 11.80553001 2.76223698 17.66455078 4.4621582 C33.61346085 9.08702052 49.51277353 12.71709271 66.03125 14.5078125 C69.68408864 15.1134147 72.02775727 15.91015983 74.52392578 18.70825195 C74.9929834 19.37816162 75.46204102 20.04807129 75.9453125 20.73828125 C76.46480469 21.47626953 76.98429687 22.21425781 77.51953125 22.97460938 C78.04933594 23.74611328 78.57914062 24.51761719 79.125 25.3125 C79.66253906 26.07240234 80.20007813 26.83230469 80.75390625 27.61523438 C83.34429743 31.33286561 85.41445374 34.73111432 87 39 C79.38236119 39.15903018 71.99628204 38.74957437 64.4375 37.8125 C63.36902832 37.68157959 62.30055664 37.55065918 61.19970703 37.41577148 C49.02182063 35.84852274 37.00368337 33.56270104 25 31 C24.19723633 30.83387207 23.39447266 30.66774414 22.56738281 30.49658203 C14.73908622 28.84308621 8.75995721 26.75060638 2.4296875 21.81640625 C-1.74357465 18.69652377 -6.38476195 16.39536119 -11 14 C-10.29875 13.360625 -9.5975 12.72125 -8.875 12.0625 C-5.28363177 8.50200313 -2.69563035 4.25187054 0 0 Z " fill="#9D0207" transform="translate(275,120)"/>
<path d="M0 0 C31.68 0 63.36 0 96 0 C96 5.28 96 10.56 96 16 C64.32 16 32.64 16 0 16 C0 10.72 0 5.44 0 0 Z " fill="#9D0208" transform="translate(208,216)"/>
<path d="M0 0 C0.33 0 0.66 0 1 0 C1 22.11 1 44.22 1 67 C-8.57 67 -18.14 67 -28 67 C-26.82528542 54.07813966 -26.82528542 54.07813966 -24.9375 47.9375 C-24.72125977 47.22416504 -24.50501953 46.51083008 -24.28222656 45.77587891 C-19.13535757 29.48692594 -11.42472577 12.8455179 0 0 Z " fill="#F8AD0A" transform="translate(207,165)"/>
<path d="M0 0 C11.53191118 11.53191118 25 34.31669367 25 51 C16.75 51 8.5 51 0 51 C0 34.17 0 17.34 0 0 Z " fill="#FADC07" transform="translate(304,165)"/>
<path d="M0 0 C8.58 0 17.16 0 26 0 C26 7.92 26 15.84 26 24 C16.1 24 6.2 24 -4 24 C-4 17.49176293 -3.77933096 12.91185082 -2 6.9375 C-1.34 4.648125 -0.68 2.35875 0 0 Z " fill="#FF9600" transform="translate(190,232)"/>
<path d="M0 0 C2.93230193 1.32120828 4.98664899 2.74638197 7.234375 5.0390625 C8.09482422 5.90917969 8.09482422 5.90917969 8.97265625 6.796875 C9.55917969 7.40015625 10.14570313 8.0034375 10.75 8.625 C11.35199219 9.23601562 11.95398438 9.84703125 12.57421875 10.4765625 C14.05405305 11.97988624 15.52764676 13.48934856 17 15 C13.17169364 19.67904111 9.11275959 24.13018509 4.9375 28.5 C4.4312207 29.05268555 3.92494141 29.60537109 3.40332031 30.17480469 C1.90234375 31.71875 1.90234375 31.71875 -1 34 C-5.1381295 33.8618705 -5.1381295 33.8618705 -7 32 C-7.3941429 27.9686036 -7.41849822 23.92292193 -7.5 19.875 C-7.55414063 18.74578125 -7.60828125 17.6165625 -7.6640625 16.453125 C-7.79957097 8.18710813 -7.79957097 8.18710813 -5.40625 4.63378906 C-3.68616109 2.91283317 -1.97955838 1.41059499 0 0 Z " fill="#FE9600" transform="translate(359,264)"/>
<path d="M0 0 C1.84446577 2.76669866 2.44899138 4.23102338 3.125 7.375 C3.29257812 8.12523437 3.46015625 8.87546875 3.6328125 9.6484375 C4 12 4 12 4 17 C-5.57 17 -15.14 17 -25 17 C-25 11.72 -25 6.44 -25 1 C-20.87533591 0.75228139 -16.75145152 0.52601465 -12.625 0.3125 C-11.449375 0.23966797 -10.27375 0.16683594 -9.0625 0.09179688 C-7.94101562 0.03701172 -6.81953125 -0.01777344 -5.6640625 -0.07421875 C-4.62717285 -0.13182373 -3.5902832 -0.18942871 -2.52197266 -0.2487793 C-1.68972168 -0.16668213 -0.8574707 -0.08458496 0 0 Z " fill="#F8AD0A" transform="translate(329,215)"/>
<path d="M0 0 C2 1.125 2 1.125 3 3 C3.20802837 7.47261002 1.5408937 9.8527076 -1.25 13.125 C-6.28824224 18.50117312 -11.49787577 23.35210494 -19.15625 24.25390625 C-21.3125 24.3125 -21.3125 24.3125 -25 24 C-27 22 -27 22 -27.0625 18.875 C-25.97096576 12.84019574 -21.32756548 8.78035638 -16.640625 5.1953125 C-10.9933939 1.33821675 -7.02621503 -0.5018725 0 0 Z " fill="#F5583A" transform="translate(117,24)"/>
<path d="M0 0 C0.66 0.66 1.32 1.32 2 2 C1.8451249 6.49137803 1.29451548 9.75733926 -0.875 13.6875 C-3.41169422 18.29215146 -4.27870954 23.11910365 -5.2890625 28.2421875 C-6 31 -6 31 -8 33 C-10.375 33.375 -10.375 33.375 -13 33 C-16.23521894 30.39385141 -17.71521326 28.28296257 -18.23828125 24.08984375 C-18.48903249 16.81805765 -16.91095085 10.46836697 -12.1640625 4.8125 C-8.35165715 1.18998457 -5.4966034 -1.17784359 0 0 Z " fill="#F7ECBF" transform="translate(37,123)"/>
<path d="M0 0 C0.33 0 0.66 0 1 0 C1 7.92 1 15.84 1 24 C-3.29 24 -7.58 24 -12 24 C-4.66901408 6.5915493 -4.66901408 6.5915493 0 0 Z " fill="#FADC08" transform="translate(207,192)"/>
<path d="M0 0 C3.875 0.875 3.875 0.875 5 2 C4.39655172 9.60344828 4.39655172 9.60344828 2 12 C0.68 12 -0.64 12 -2 12 C-3.40457737 9.19084526 -3.24895157 7.11189466 -3 4 C-1.5 1.625 -1.5 1.625 0 0 Z " fill="#F45737" transform="translate(248,76)"/>
<path d="M0 0 C2.625 0.375 2.625 0.375 5 1 C5.625 3.375 5.625 3.375 6 6 C5.34 6.66 4.68 7.32 4 8 C1.375 7.625 1.375 7.625 -1 7 C-1.625 4.625 -1.625 4.625 -2 2 C-1.34 1.34 -0.68 0.68 0 0 Z " fill="#F7EBB5" transform="translate(24,159)"/>
</svg>
